<svg id="Capa_1" enable-background="new 0 0 509.718 509.718" height="512" viewBox="0 0 509.718 509.718" width="512" xmlns="http://www.w3.org/2000/svg"><g><g><path d="m252.536 349.906c32.67-1.788 113.196-22.052 129.298-109.382 14.049-76.193-8.192-117.177-18.537-128.248-4.132-4.422-11.484-3.08-13.655 2.57-6.363 16.556-21.633 37.926-47.258 34.243-48.046-6.904-51.328-86.201-37.074-116.082s-.505-28.573-28.673-20.676c-26.729 7.494-100.07 34.646-102.249 133.301-.184 8.317-10.096 12.638-16.219 7.008-4.648-4.274-8.732-10.175-9.774-18.081-.618-4.69-6.713-6.135-9.499-2.311-9.655 13.254-22.035 38.147-19.905 77.055 3.421 62.523 25.228 148.721 173.545 140.603z" fill="#df6937"/></g><g><path d="m302.944 298.004c-24.068-1.317-83.389-16.245-95.251-80.579-10.349-56.13 6.035-86.322 13.656-94.478 3.044-3.258 8.46-2.269 10.06 1.893 4.687 12.197 15.936 27.939 34.814 25.226 35.395-5.086 37.812-63.503 27.311-85.515-10.5-22.013.372-21.049 21.123-15.231 19.69 5.521 73.719 25.523 75.324 98.2.135 6.127 7.437 9.31 11.948 5.162 3.424-3.149 6.433-7.496 7.201-13.32.455-3.455 4.945-4.519 6.997-1.703 7.113 9.764 16.233 28.102 14.664 56.765-2.52 46.061-18.585 109.561-127.847 103.58z" fill="#ebb34c"/></g><g><ellipse cx="263.066" cy="345.35" fill="#bed9fd" rx="156.868" ry="156.868" transform="matrix(.707 -.707 .707 .707 -167.149 287.167)"/></g><g><path d="m263.066 188.483c-5.06 0-10.062.249-15 .718 79.598 7.552 141.868 74.575 141.868 156.15s-62.27 148.598-141.868 156.15c4.938.469 9.94.718 15 .718 86.636 0 156.868-70.232 156.868-156.868s-70.232-156.868-156.868-156.868z" fill="#9ec8fc"/></g><g><path d="m327.123 202.121c-.816 2.019-1.281 4.248-1.281 6.643v12.57c0 3.12-.829 6.184-2.401 8.878l-18.962 32.488c-11.442 19.605-17.472 41.897-17.472 64.596v3.702c0 6.487 3.566 12.45 9.282 15.518l7.88 4.23c4.047 2.173 8.782 2.678 13.197 1.41l7.262-2.087c5.78-1.661 10.313-6.157 12.022-11.923l4.622-15.596c.704-2.375.899-4.871.572-7.327l-1.364-10.259c-1.1-8.273 3.757-16.182 11.632-18.943 8.884-3.115 18.647 1.307 22.165 10.039l11.22 27.85c1.191 2.955 3.161 5.532 5.7 7.456l28.549 21.633c.122-2.535.188-5.084.188-7.648 0-63.817-38.11-118.728-92.811-143.23z" fill="#7fcb8f"/></g><g><path d="m327.123 202.121c-.816 2.019-1.281 4.248-1.281 6.643v10.091c34.858 25.607 58.724 65.278 63.278 110.648.642.67 1.332 1.298 2.077 1.862l28.549 21.633c.122-2.535.188-5.084.188-7.648 0-63.816-38.11-118.727-92.811-143.229z" fill="#6dc17d"/></g><g><path d="m260.428 389.6c-7.293-6.354-16.725-9.979-26.643-9.979h-23.753c-10.519 0-20.713-3.642-28.85-10.308l-3.388-2.775c-7.916-6.485-13.417-15.447-15.615-25.442l-6.748-30.687c-1.203-5.469.738-11.153 5.035-14.745l6.302-5.269c2.739-2.289 6.623-2.605 9.695-.787 10.419 6.164 23.873 1.28 27.911-10.132l4.857-13.726c2.1-5.935 6.439-10.812 12.09-13.588l24.133-11.856c9.845-4.837 15.18-15.712 12.98-26.458l-5.129-25.054c-73.118 4.491-132.685 59.061-144.83 129.845l28.772 38.536c4.096 5.486 7.804 11.251 11.096 17.254l17.02 31.033c3.976 7.25 7.334 14.823 10.036 22.638l20.402 58.995c20.387 9.692 43.191 15.122 67.267 15.122.682 0 1.359-.017 2.039-.026l13.741-65.465c1.562-7.442.989-15.107-1.559-22.142" fill="#7fcb8f"/></g><g><path d="m277.287 414.585-16.859-24.985c-7.293-6.354-16.726-9.979-26.643-9.979h-23.753c-10.519 0-20.713-3.642-28.85-10.308l-3.388-2.775c-7.916-6.485-13.417-15.447-15.615-25.442l-6.748-30.688c-1.203-5.469.738-11.153 5.034-14.745l6.302-5.268c2.739-2.289 6.623-2.605 9.695-.787 10.419 6.164 23.873 1.28 27.911-10.132l4.857-13.727c2.1-5.935 6.439-10.811 12.09-13.588l24.133-11.856c9.845-4.837 15.18-15.712 12.98-26.458l-5.129-25.054c-9.971.613-19.687 2.163-29.068 4.552l4.197 20.502c2.2 10.746-3.135 21.621-12.98 26.458l-24.133 11.856c-5.65 2.776-9.99 7.653-12.09 13.588l-4.857 13.727c-4.038 11.412-17.492 16.296-27.911 10.132-3.072-1.818-6.956-1.502-9.695.787l-6.302 5.268c-4.296 3.592-6.237 9.276-5.034 14.745l6.748 30.688c2.198 9.994 7.699 18.957 15.615 25.442l3.388 2.775c8.137 6.665 18.331 10.308 28.85 10.308h23.753c9.917 0 19.35 3.625 26.643 9.979l16.859 24.984c2.548 7.035 3.122 14.7 1.56 22.142l-13.241 63.082c8.917 1.576 18.091 2.409 27.461 2.409.682 0 1.359-.017 2.039-.026l13.741-65.465c1.561-7.441.988-15.106-1.56-22.141z" fill="#6dc17d"/></g><g><path d="m277.287 414.585c-1.057-2.92-2.455-5.731-4.181-8.372l-5.372-8.221c-2.065-3.159-4.53-5.973-7.306-8.391" fill="#7fcb8f"/></g><g><path d="m407.961 405.543-12.847-17.275c-4.984-6.702-12.471-11.099-20.753-12.188-10.075-1.324-20.156 2.394-26.959 9.942l-7.988 8.863c-8.24 9.142-10.263 22.305-5.15 33.5l20.281 44.403c23.511-16.907 42.15-40.156 53.416-67.245z" fill="#7fcb8f"/></g><path d="m438.282 194.834c1.661-30.37-7.834-50.256-16.092-61.59-2.766-3.797-7.496-5.501-12.059-4.34-4.517 1.149-7.828 4.87-8.437 9.479-.404 3.067-1.79 5.755-4.233 8.197-.892-32.966-12.094-59.5-33.301-78.88-12.692-11.598-29.11-20.451-47.479-25.602-14.245-3.994-25.63-6.467-31.78.843-5.616 6.674-2.21 16.302 1.862 24.839 5.706 11.961 7.575 41.326-2.482 60.116-.498.929-1.02 1.808-1.56 2.652-20.156-22.071-21.341-71.888-10.643-94.313 5.16-10.818 9.54-22.942 2.896-30.837-7.317-8.698-21.969-5.445-40.365-.289-24.532 6.878-46.443 18.687-63.365 34.15-28.451 25.998-43.375 61.731-44.357 106.208-.028 1.261-.878 1.81-1.382 2.024-.579.246-1.44.383-2.263-.373-4.25-3.908-6.745-8.463-7.415-13.539-.68-5.162-4.391-9.331-9.453-10.62-5.122-1.304-10.438.608-13.544 4.872-10.953 15.035-23.545 41.446-21.332 81.881 1.482 27.073 6.391 66.542 31.55 98.009-.74 3.148-1.386 6.331-1.942 9.545-.026.138-.051.276-.069.416-1.532 8.999-2.341 18.24-2.341 27.669 0 65.221 38.184 121.688 93.371 148.228.382.22.779.409 1.194.558 21.2 9.986 44.859 15.581 69.803 15.581 35.399 0 68.221-11.249 95.078-30.359.584-.319 1.109-.706 1.573-1.147 24.046-17.541 43.176-41.433 54.885-69.198.215-.412.39-.841.524-1.281 6.953-16.887 11.178-35.172 12.108-54.311 0-.009 0-.018.001-.027.129-2.666.199-5.347.199-8.044 0-26.008-6.081-50.618-16.882-72.5.682-.736 1.37-1.465 2.026-2.226 20.634-23.952 24.553-54.726 25.706-75.791zm-351.804 14.058c-1.774-32.427 6.904-54.41 15.596-68.006 1.877 6.471 5.568 12.265 11.018 17.274 5.007 4.604 12.017 5.804 18.292 3.131 6.326-2.694 10.349-8.631 10.5-15.494 1.917-86.773 61.456-116.343 96.775-126.246 16.303-4.57 22.469-4.999 24.661-4.391.062 1.278-.295 5.211-4.781 14.616-6.749 14.148-9.597 36.377-7.433 58.013 2.235 22.339 9.462 40.809 20.56 52.92-2.035.949-4.204 1.602-6.51 1.933-4.197.601-18.523.908-26.747-20.493-1.676-4.36-5.417-7.497-10.006-8.391-4.627-.902-9.312.619-12.535 4.067-2.552 2.732-22.132 25.547-18.616 76.924-41.083 18.024-73.437 52.374-88.796 94.8-17.035-26.578-20.748-58.194-21.978-80.657zm160.812-12.076 3.795 18.537c1.515 7.399-2.161 14.892-8.939 18.222l-24.133 11.856c-7.453 3.662-13.083 9.99-15.853 17.817l-4.857 13.727c-1.174 3.317-3.744 5.908-7.051 7.109-3.308 1.201-6.942.861-9.971-.93-5.793-3.427-13.156-2.831-18.324 1.488l-6.302 5.269c-6.466 5.406-9.359 13.878-7.549 22.11l6.749 30.688c2.549 11.59 9.008 22.113 18.188 29.632l3.388 2.775c9.451 7.742 21.385 12.006 33.602 12.006h23.753c7.984 0 15.696 2.889 21.716 8.134 1.421 1.238 3.176 1.845 4.924 1.845 2.093 0 4.175-.871 5.657-2.573 2.722-3.123 2.396-7.86-.728-10.582-8.751-7.625-19.963-11.824-31.57-11.824h-23.753c-8.761 0-17.319-3.058-24.097-8.609l-3.388-2.776c-6.583-5.392-11.214-12.938-13.042-21.25l-6.748-30.688c-.604-2.748.361-5.576 2.52-7.38l6.301-5.268c.301-.252.729-.287 1.066-.087 6.903 4.083 15.187 4.857 22.727 2.12 7.539-2.737 13.398-8.644 16.073-16.205l4.857-13.727c1.455-4.111 4.412-7.435 8.327-9.358l24.133-11.856c12.905-6.34 19.904-20.606 17.021-34.694l-3.348-16.353c.212-.001.422-.008.634-.008 19.553 0 38.238 3.783 55.369 10.645-.059.708-.094 1.42-.094 2.137v12.57c0 1.79-.477 3.553-1.379 5.098l-18.961 32.486c-12.1 20.731-18.495 44.375-18.495 68.377v3.701c0 9.266 5.071 17.744 13.234 22.126l7.88 4.23c5.804 3.116 12.486 3.829 18.816 2.01l7.261-2.087c8.284-2.381 14.692-8.736 17.142-17.001l4.622-15.595c1.01-3.406 1.285-6.921.816-10.448l-1.364-10.259c-.628-4.726 2.181-9.3 6.679-10.877 5.115-1.794 10.703.739 12.727 5.764l11.221 27.849c1.697 4.214 4.509 7.891 8.128 10.631l25.348 19.207c-.858 11.518-3.026 22.676-6.359 33.325l-4.524-6.083c-6.159-8.282-15.561-13.803-25.794-15.148-12.527-1.645-25.051 2.973-33.508 12.356l-7.988 8.863c-10.247 11.371-12.76 27.714-6.4 41.637l17.64 38.621c-20.583 13.575-44.701 22.206-70.655 24.167l11.759-56.022c1.755-8.363 1.245-17.065-1.475-25.167-1.318-3.927-5.567-6.044-9.498-4.723-3.926 1.318-6.041 5.57-4.723 9.497 1.871 5.573 2.223 11.56 1.016 17.312l-12.484 59.476c-20.329-.543-39.658-5.167-57.196-13.083l-19.342-55.93c-2.832-8.19-6.381-16.195-10.548-23.793l-17.02-31.034c-3.448-6.287-7.372-12.388-11.662-18.134l-26.805-35.901c12.385-63.695 65.371-113.063 130.838-119.967zm164.959 141.092-16.523-12.521c-1.457-1.104-2.589-2.583-3.271-4.28l-11.221-27.849c-5.026-12.479-18.911-18.765-31.604-14.314-11.17 3.917-18.145 15.275-16.585 27.009l1.364 10.258c.188 1.42.078 2.836-.328 4.208l-4.622 15.596c-.986 3.328-3.567 5.887-6.904 6.846l-7.261 2.087c-2.549.731-5.241.444-7.577-.81l-7.881-4.23c-3.287-1.765-5.329-5.179-5.329-8.91v-3.701c0-21.348 5.688-42.378 16.45-60.816l18.962-32.488c2.239-3.838 3.423-8.215 3.423-12.658v-7.754c44.967 24.078 76.252 70.498 78.907 124.327zm-298.55 7.442c0-2.331.061-4.648.167-6.953l17.37 23.264c3.874 5.188 7.417 10.697 10.53 16.374l17.02 31.033c3.763 6.86 6.967 14.088 9.524 21.483l13.962 40.375c-41.225-26.616-68.573-72.96-68.573-125.576zm243.73 115.697-16.342-35.777c-3.874-8.481-2.344-18.437 3.898-25.363l7.988-8.863c5.151-5.716 12.781-8.528 20.41-7.527 6.233.819 11.961 4.183 15.712 9.227l10.236 13.764c-9.591 21.288-24.032 39.936-41.902 54.539zm-26.595-265.435c-.288-.164-.584-.316-.899-.444-.161-.065-.323-.115-.485-.168-20.313-9.004-42.772-14.018-66.384-14.018-17.814 0-34.969 2.86-51.046 8.125-1.168-31.146 6.955-50.996 13.325-59.279 6.198 14.367 18.606 28.052 36.617 28.05 1.724 0 3.502-.126 5.328-.388 12.873-1.85 23.321-9.636 30.217-22.516 11.998-22.414 11.132-56.179 2.797-73.652-1.933-4.05-2.75-6.587-3.091-8.078 2.34.104 6.847.894 15.421 3.297 25.492 7.148 68.467 28.494 69.851 91.144.128 5.842 3.553 10.895 8.936 13.188 5.351 2.278 11.32 1.253 15.587-2.669 3.1-2.85 5.512-6.115 7.168-9.667 5.464 9.878 10.268 24.678 9.129 45.478-1.001 18.291-4.239 44.646-20.493 64.899-17.129-27.591-42.188-49.766-71.978-63.302z"/></g></svg>