<svg id="Layer_3" enable-background="new 0 0 64 64" height="512" viewBox="0 0 64 64" width="512" xmlns="http://www.w3.org/2000/svg"><path d="m5 34h54v28h-54z" fill="#5f986e"/><path d="m51 58c0-2.209 1.791-4 4-4v-12c-2.209 0-4-1.791-4-4h-38c0 2.209-1.791 4-4 4v12c2.209 0 4 1.791 4 4z" fill="#7ecb92"/><circle cx="32" cy="48" fill="#b49e4c" r="10"/><ellipse cx="30.5" cy="48" fill="#f0d365" rx="8.5" ry="9.875"/><circle cx="13" cy="19" fill="#b49e4c" r="11"/><ellipse cx="11.5" cy="19" fill="#f0d365" rx="9.5" ry="10.886"/><circle cx="51" cy="19" fill="#b49e4c" r="11"/><ellipse cx="49.5" cy="19" fill="#f0d365" rx="9.5" ry="10.886"/><circle cx="32" cy="13" fill="#b49e4c" r="11"/><ellipse cx="30.5" cy="13" fill="#f0d365" rx="9.5" ry="10.886"/><path d="m32 25c-6.617 0-12-5.383-12-12s5.383-12 12-12 12 5.383 12 12-5.383 12-12 12zm0-22c-5.514 0-10 4.486-10 10s4.486 10 10 10 10-4.486 10-10-4.486-10-10-10z"/><path d="m59 63h-54c-.552 0-1-.448-1-1v-28c0-.552.448-1 1-1h54c.552 0 1 .448 1 1v28c0 .552-.448 1-1 1zm-53-2h52v-26h-52z"/><path d="m51 59h-38c-.552 0-1-.448-1-1 0-1.654-1.346-3-3-3-.552 0-1-.448-1-1v-12c0-.552.448-1 1-1 1.654 0 3-1.346 3-3 0-.552.448-1 1-1h38c.552 0 1 .448 1 1 0 1.654 1.346 3 3 3 .552 0 1 .448 1 1v12c0 .552-.448 1-1 1-1.654 0-3 1.346-3 3 0 .552-.448 1-1 1zm-37.101-2h36.201c.398-1.956 1.943-3.501 3.899-3.899v-10.202c-1.956-.398-3.501-1.943-3.899-3.899h-36.201c-.398 1.956-1.943 3.501-3.899 3.899v10.201c1.956.399 3.501 1.944 3.899 3.9z"/><path d="m36 55h-2c-3.86 0-7-3.14-7-7s3.14-7 7-7h2v2h-2c-2.757 0-5 2.243-5 5s2.243 5 5 5h2z"/><path d="m25 45h8v2h-8z"/><path d="m25 49h8v2h-8z"/><path d="m36 20h-2c-3.86 0-7-3.14-7-7s3.14-7 7-7h2v2h-2c-2.757 0-5 2.243-5 5s2.243 5 5 5h2z"/><path d="m25 10h8v2h-8z"/><path d="m25 14h8v2h-8z"/><path d="m51 31c-6.003 0-11.118-4.482-11.897-10.426l1.983-.26c.649 4.952 4.911 8.686 9.914 8.686 5.514 0 10-4.486 10-10s-4.486-10-10-10c-2.789 0-5.471 1.178-7.361 3.231l-1.472-1.354c2.268-2.464 5.487-3.877 8.833-3.877 6.617 0 12 5.383 12 12s-5.383 12-12 12z"/><path d="m55 26h-2c-3.86 0-7-3.14-7-7s3.14-7 7-7h2v2h-2c-2.757 0-5 2.243-5 5s2.243 5 5 5h2z"/><path d="m44 16h8v2h-8z"/><path d="m44 20h8v2h-8z"/><path d="m13 31c-6.617 0-12-5.383-12-12s5.383-12 12-12c3.35 0 6.571 1.416 8.839 3.883l-1.473 1.354c-1.89-2.057-4.574-3.237-7.366-3.237-5.514 0-10 4.486-10 10s4.486 10 10 10c4.962 0 9.219-3.699 9.904-8.604l1.98.276c-.821 5.888-5.93 10.328-11.884 10.328z"/><path d="m17 26h-2c-3.86 0-7-3.14-7-7s3.14-7 7-7h2v2h-2c-2.757 0-5 2.243-5 5s2.243 5 5 5h2z"/><path d="m6 16h8v2h-8z"/><path d="m6 20h8v2h-8z"/><path d="m32 59c-6.065 0-11-4.935-11-11s4.935-11 11-11 11 4.935 11 11-4.935 11-11 11zm0-20c-4.962 0-9 4.038-9 9s4.038 9 9 9 9-4.038 9-9-4.038-9-9-9z"/></svg>