<svg id="_x33_0" enable-background="new 0 0 64 64" height="512" viewBox="0 0 64 64" width="512" xmlns="http://www.w3.org/2000/svg"><g><g><g><circle cx="32" cy="11" fill="#fcd770" r="9"/></g><g><path d="m15.84 36.92c-.15-.93-.39-2.03-.84-2.92 0 0 10 1 9 12h-4s-1-2-3-2-3 2-3 2-4 0-4 3v2s0 2 3 3c0 0 0 1.91-2.8 1.99-.85-.97-2.33-2.37-4.2-2.99 0 0-2 1-2 3 0 0-1-7 1-9 0 0-2 0-3 1 0 0 .93-4.66 3.7-6.77-1.06-.65-2.38-1.23-3.7-1.23 0 0 3.96-7.91 13.84-3.08z" fill="#b27946"/></g><g><path d="m53.96 55.14c.87.21 1.6.42 2.12.58l-.08.28v6h-14s-5.12.64-7.16-2.69c-.52-.83-.84-1.91-.84-3.31 0-5.79 3.42-7.48 8.01-7.88l-.01-.12v-3-4s13 0 14 7-2 7-2 7z" fill="#969faa"/></g><g><path d="m42 48 .01.12c-4.59.4-8.01 2.09-8.01 7.88 0 1.4.32 2.48.84 3.31-1.76 2.69-13.84 2.69-13.84 2.69v-5c6 0 6-4 6-4s0 0 0-3c0-.78 0-1.76 0-3 0-.35.02-.68.05-.99.52-5.01 4.95-5.01 4.95-5.01h10v4z" fill="#b4dd7f"/></g><g><path d="m58 20v11l-10-1v-7z" fill="#b4dd7f"/></g><g><path d="m16 23v7l-10 1v-11z" fill="#b4dd7f"/></g><g><path d="m25 24v1h3c.55 0 1 .45 1 1v2c0 1.1-.9 2-2 2h-11v-7s1-2 2-2c.73 0 4.23 1.43 6 2 .64.21 1 .33 1 1z" fill="#f0d0b4"/></g><g><path d="m39 25v-1c0-.67.36-.79 1-1 1.77-.57 5.27-2 6-2 1 0 2 2 2 2v7h-11c-1.1 0-2-.9-2-2v-2c0-.55.45-1 1-1z" fill="#f0d0b4"/></g><g><path d="m57 56c5 0 5 6 5 6h-5-1v-6l.08-.28c.59.17.92.28.92.28z" fill="#f0d0b4"/></g><g><path d="m27 46 .05.01c-.03.31-.05.64-.05.99v3h-3.91c.47.62.91 1.59.91 3 0 3-3 4-3 4h-10s-.28-.43-.8-1.01c2.8-.08 2.8-1.99 2.8-1.99-3-1-3-3-3-3v-2c0-3 4-3 4-3s1-2 3-2 3 2 3 2h4z" fill="#f0d0b4"/></g><g><path d="m21 57v5h-17c0-4 4-5 4-5h3z" fill="#f0d0b4"/></g></g><g><path d="m27 31c1.654 0 3-1.346 3-3v-2c0-1.103-.897-2-2-2h-2c0-1.403-1.059-1.747-1.692-1.951-.606-.196-1.417-.495-2.248-.799-2.366-.869-3.465-1.25-4.06-1.25-1.088 0-1.956 1.022-2.469 1.815l-10.531-3.159v13.449l11.051-1.105zm-10-7.75c.335-.596.813-1.185.98-1.25.411.034 2.204.692 3.391 1.127.858.315 1.696.622 2.321.824.045.015.097.031.148.049h-2.84v2h7v2c0 .551-.449 1-1 1h-10zm-10-1.906 8 2.4v5.351l-8 .8z"/><path d="m39.692 22.049c-.633.204-1.692.548-1.692 1.951h-2c-1.103 0-2 .897-2 2v2c0 1.654 1.346 3 3 3h10.949l11.051 1.105v-13.449l-10.531 3.159c-.513-.793-1.381-1.815-2.469-1.815-.595 0-1.694.381-4.06 1.25-.831.304-1.642.603-2.248.799zm17.308 7.846-8-.8v-5.351l8-2.4zm-11.044-7.9c.225.069.708.659 1.044 1.254v5.751h-10c-.551 0-1-.449-1-1v-2h7v-2h-2.84c.052-.018.104-.034.148-.049.625-.202 1.463-.509 2.321-.824 1.187-.436 2.98-1.094 3.327-1.132z"/><path d="m32 21c5.514 0 10-4.486 10-10s-4.486-10-10-10-10 4.486-10 10 4.486 10 10 10zm0-18c4.411 0 8 3.589 8 8s-3.589 8-8 8-8-3.589-8-8 3.589-8 8-8z"/><path d="m16.5.969h2v8.062h-2z" transform="matrix(.496 -.868 .868 .496 4.476 17.714)"/><path d="m16 10h4v2h-4z"/><path d="m14.838 16h6.325v2h-6.325z" transform="matrix(.949 -.316 .316 .949 -4.452 6.565)"/><path d="m42.469 4h8.062v2h-8.062z" transform="matrix(.868 -.496 .496 .868 3.646 23.729)"/><path d="m44 10h4v2h-4z"/><path d="m45 13.838h2v6.325h-2z" transform="matrix(.316 -.949 .949 .316 15.326 55.264)"/><path d="m57.165 55.002c-.185-.06-.534-.169-.99-.302.988-1.376 1.268-3.666.815-6.841-1.11-7.77-14.424-7.859-14.99-7.859h-1-9c-1.798 0-4.981 1.104-5.8 5h-1.137c.335-10.835-9.857-11.984-9.963-11.995l-1.806-.181.812 1.623c.122.244.226.509.317.782-9.316-3.404-13.276 4.24-13.317 4.323l-.724 1.448h1.618c.672 0 1.354.19 1.998.465-2.179 2.487-2.942 6.154-2.979 6.338l-.648 3.239 2.335-2.335c.127-.127.291-.232.473-.319-.8 2.807-.308 6.791-.17 7.754l1.991-.142c0-.927.686-1.575 1.113-1.89 1.091.458 2.014 1.206 2.711 1.89h-.824l-.243.03c-1.645.411-4.757 2.188-4.757 5.97v1h17 1c2.691 0 10.515-.193 13.681-2.251.131.141.266.279.413.408 1.848 1.631 4.432 1.893 5.899 1.893.527 0 .91-.034 1.063-.05h20.944v-1c0-2.393-1.225-6.894-5.835-6.998zm-32.464-4.002h1.299v1.987c-.005.202-.107 1.434-1.522 2.258.314-.618.522-1.359.522-2.245 0-.773-.118-1.432-.299-2zm1.299-2h-2.439c-.554-.604-1.068-.871-1.114-.895l-.908 1.782c.06.033 1.461.815 1.461 3.113 0 1.938-1.691 2.792-2.185 3h-.815-6.949c.698-.641.949-1.448.949-2v-.721l-.684-.228c-2.213-.738-2.314-2.024-2.316-2.051v-2c0-1.958 2.88-1.999 3-2l.612-.006.28-.541c.007-.015.766-1.453 2.108-1.453s2.101 1.438 2.105 1.447l.277.553h6.618zm-20.077 2.92-.371.185c-.038.019-.38.194-.802.531-.025-2.11.219-4.193.956-4.93l1.708-1.706h-2.414c-.12 0-.7.009-1.41.161.444-1.189 1.156-2.646 2.195-3.681.893.626 1.496 1.216 1.509 1.228l1.413-1.415c-.111-.111-2.32-2.293-4.991-3.043 1.461-1.751 4.955-4.473 11.193-1.649.087.8.092 1.387.092 1.4l1.999-.001c0-.098-.007-1.855-.46-3.649 2.45.751 6.728 3.027 6.509 9.649h-2.497c-.536-.752-1.704-2-3.552-2-1.871 0-3.044 1.279-3.571 2.027-1.79.167-4.429 1.131-4.429 3.973v2c0 .1.034 2.233 2.692 3.544-.2.178-.53.345-1.074.418-.962-1.019-2.449-2.293-4.302-2.911zm-.808 9.08c.506-2.097 2.535-2.848 3.025-3h11.86v3zm16.885-3.037c5.928-.452 6-4.916 6-4.963v-6c0-4.809 3.596-4.995 4-5h9v5.206c-3.805.509-8 2.318-8 8.794 0 1.187.213 2.235.622 3.145-1.458.969-6.297 1.757-11.622 1.847zm20 3.037-.122.007c-.034.004-3.488.398-5.467-1.355-.95-.841-1.411-2.036-1.411-3.652 0-5.854 3.667-7 10-7v-2c-.584 0-1.269.004-2 .034v-4.998c2.924.165 11.292 1.078 12.01 6.105.506 3.541-.089 4.938-.488 5.455-.285.369-.559.404-.571.405l.002.098c-3.249-.807-8.226-1.734-12.118-1.086l.329 1.973c4.18-.696 10.004.675 12.836 1.462v4.552zm15 0v-4c2.858 0 3.674 2.538 3.907 4z"/><path d="m31 18h2v-2h3v-6h-6v-2h6v-2h-3v-2h-2v2h-3v6h6v2h-6v2h3z"/></g></g></svg>